<?xml version="1.0" standalone="no"?>
<!DOCTYPE svg PUBLIC "-//W3C//DTD SVG 20010904//EN"
 "http://www.w3.org/TR/2001/REC-SVG-20010904/DTD/svg10.dtd">
<svg version="1.0" xmlns="http://www.w3.org/2000/svg"
 width="720.000000pt" height="719.000000pt" viewBox="0 0 720.000000 719.000000"
 preserveAspectRatio="xMidYMid meet">

<g transform="translate(0.000000,719.000000) scale(0.100000,-0.100000)"
fill="#000000" stroke="none">
<path d="M0 3595 l0 -3595 3600 0 3600 0 0 3595 0 3595 -3600 0 -3600 0 0
-3595z m3778 1451 c76 -53 142 -93 146 -89 3 3 6 39 6 79 0 68 2 74 31 98 30
25 35 26 168 26 125 0 141 -2 165 -21 l26 -20 0 -232 1 -232 80 -55 c152 -104
236 -168 253 -191 21 -30 21 -83 -1 -115 -9 -14 -44 -45 -78 -70 -78 -55 -119
-58 -188 -14 -26 17 -49 30 -51 30 -2 0 -6 -109 -8 -242 -3 -224 -5 -246 -24
-278 -12 -21 -69 -71 -140 -123 -133 -98 -152 -108 -176 -96 -16 8 -17 43 -20
383 -3 352 -4 375 -22 395 -20 22 -338 248 -362 258 -12 4 -49 -20 -184 -118
-14 -10 -59 -42 -101 -70 -117 -80 -111 -50 -106 -461 3 -205 1 -360 -5 -370
-17 -35 -23 -31 -226 120 -109 81 -106 74 -110 365 -2 136 -7 247 -11 247 -4
0 -25 -13 -47 -30 -23 -16 -54 -30 -70 -31 -35 -3 -74 9 -74 22 0 5 -5 9 -12
9 -21 0 -88 52 -108 85 -44 72 -17 113 147 222 49 32 153 105 233 163 80 57
176 125 213 152 37 27 73 45 79 42 6 -4 9 -3 5 2 -5 9 69 68 183 144 36 24 74
51 85 61 11 9 42 29 68 43 37 19 54 23 72 16 13 -5 86 -52 163 -104z m-90
-900 l37 -36 3 -398 c2 -363 1 -400 -15 -431 -41 -80 -132 -101 -210 -49 -73
48 -74 59 -71 485 3 359 4 373 24 400 40 54 83 75 142 71 45 -4 59 -10 90 -42z
m-1784 -1140 c116 -57 146 -127 146 -341 0 -176 -14 -229 -74 -290 -101 -100
-325 -108 -438 -15 -65 54 -81 104 -86 271 -6 217 16 291 109 355 89 61 240
70 343 20z m539 20 c20 -8 52 -25 71 -40 31 -23 35 -24 47 -9 27 31 111 63
170 63 106 0 190 -49 230 -135 17 -36 19 -69 19 -317 l0 -278 -65 0 -65 0 0
264 c0 146 -4 276 -10 290 -14 38 -55 60 -112 59 -60 -1 -98 -25 -115 -74 -8
-23 -12 -118 -12 -286 l-1 -253 -59 0 -60 0 -3 274 -3 274 -24 26 c-54 57
-155 53 -191 -7 -18 -30 -20 -52 -20 -299 l0 -268 -65 0 -65 0 0 255 c0 312 5
344 69 405 26 25 62 51 81 57 49 15 138 15 183 -1z m1007 3 c75 -16 139 -64
172 -128 27 -52 28 -57 28 -225 0 -94 -5 -188 -11 -209 -13 -46 -69 -112 -119
-137 -127 -65 -323 -36 -401 59 -49 60 -59 108 -59 280 0 86 5 172 10 192 12
43 71 114 114 136 80 42 170 53 266 32z m-2207 -29 c57 -21 103 -63 133 -120
17 -30 19 -58 19 -210 -1 -142 -4 -182 -17 -211 -27 -58 -68 -100 -123 -125
-47 -22 -62 -24 -232 -24 l-183 0 0 183 c0 100 -3 260 -7 355 l-6 172 181 0
c157 0 188 -3 235 -20z m3147 -35 l0 -55 -110 0 -110 0 0 -300 0 -300 -60 0
-60 0 -2 298 -3 297 -110 5 -110 5 -3 39 c-6 70 -22 66 288 66 l280 0 0 -55z
m560 0 l0 -55 -187 -2 -188 -3 0 -85 0 -85 178 -3 177 -2 0 -55 0 -55 -147 -1
c-82 0 -161 -2 -178 -2 l-30 -2 0 -95 0 -95 190 -5 190 -5 3 -52 3 -53 -255 0
-256 0 0 355 0 355 250 0 250 0 0 -55z m598 3 l-3 -53 -160 -5 c-174 -5 -196
-12 -232 -67 -15 -23 -18 -51 -18 -178 0 -141 1 -152 23 -183 38 -52 54 -57
227 -62 l160 -5 3 -52 c3 -45 0 -53 -15 -54 -105 -4 -327 5 -358 14 -23 7 -60
31 -87 57 -68 66 -81 119 -76 313 4 166 14 201 75 259 61 58 101 68 291 68
l173 0 -3 -52z m222 -93 l0 -145 163 2 162 3 3 143 3 142 64 0 65 0 0 -355 0
-355 -65 0 -64 0 -3 153 -3 152 -162 3 -163 2 0 -155 0 -155 -65 0 -65 0 0
355 0 355 65 0 65 0 0 -145z"/>
<path d="M1651 2902 c-70 -35 -76 -55 -76 -230 0 -182 8 -208 77 -243 35 -18
54 -21 113 -17 77 5 106 19 136 65 16 24 19 49 19 188 0 182 -10 213 -75 241
-48 20 -152 18 -194 -4z"/>
<path d="M3253 2902 c-62 -34 -68 -51 -71 -222 -3 -137 -1 -159 16 -190 28
-51 84 -80 157 -80 73 0 121 22 153 70 22 34 23 41 20 197 l-3 163 -38 37
c-36 37 -39 38 -120 41 -63 2 -89 -2 -114 -16z"/>
<path d="M960 2665 l0 -245 108 0 c120 0 158 14 187 69 22 43 22 309 -1 352
-25 49 -82 69 -196 69 l-98 0 0 -245z"/>
</g>
</svg>
